<svg xmlns="http://www.w3.org/2000/svg" viewBox="0 5.400000095367432 68.80000305175781 41.849998474121094" data-asc="0.851" width="68.80000305175781" height="41.849998474121094"><defs/><g fill="#000000"><g transform="translate(0, 0)"><path d="M18.75 47.25Q15.15 47.25 11.80 46.38Q8.45 45.50 5.80 43.75Q3.15 42 1.57 39.35Q0 36.70 0 33.10Q0 30.45 0.95 27.45Q1.50 25.75 2.53 24.55Q3.55 23.35 4.65 22.70Q5.75 22.05 6.40 22.05Q7.25 22.05 7.10 22.85Q6.80 23.20 6.08 23.67Q5.35 24.15 4.53 24.90Q3.70 25.65 2.98 26.82Q2.25 28.00 1.95 29.80Q1.85 30.45 1.78 31.10Q1.70 31.75 1.70 32.35Q1.70 35.60 3.10 38.10Q4.50 40.60 6.78 42.25Q9.05 43.90 11.78 44.72Q14.50 45.55 17.15 45.50Q21.20 45.40 24.35 44.38Q27.50 43.35 29.95 41.65Q32.40 39.95 34.25 37.90Q35.80 36.20 37.35 33.75Q38.90 31.30 40.38 28.47Q41.85 25.65 43.18 22.85Q44.50 20.05 45.65 17.55Q46.80 15.05 47.65 13.27Q48.50 11.50 49.05 10.80Q45.10 9.60 41.48 8.92Q37.85 8.25 33.75 8.05Q30 7.85 27.07 8.90Q24.15 9.95 22.13 11.72Q20.10 13.50 19.03 15.60Q17.95 17.70 17.95 19.65Q17.95 21.35 18.82 22.67Q19.70 24.00 21.50 24.60Q22.70 24.95 23.85 24.95Q25.65 24.95 27 24.20Q28.35 23.45 29.28 22.37Q30.20 21.30 30.68 20.32Q31.15 19.35 31.15 18.90L31.15 18.85Q31.40 18.55 31.65 18.55Q32.15 18.55 32.15 19.25Q31.90 21.40 30.63 23.00Q29.35 24.60 27.55 25.45Q25.75 26.30 23.75 26.30Q22.35 26.30 21.05 25.85Q18.30 24.85 16.90 22.62Q15.50 20.40 15.50 17.80Q15.50 15.60 16.45 13.42Q17.40 11.25 19.35 9.42Q21.30 7.60 24.20 6.50Q27.10 5.40 31.00 5.40Q31.65 5.40 32.05 5.40Q32.45 5.40 33.40 5.50Q35.75 5.70 38.15 6.27Q40.55 6.85 42.75 7.55Q44.95 8.25 46.80 8.90Q48.65 9.55 49.85 9.85Q50.00 9.65 50.73 9.15Q51.45 8.65 52.23 8.10Q53.00 7.55 53.45 7.15Q53.90 6.75 53.50 6.75L53.45 6.75Q53.60 6.70 53.85 6.70Q54.35 6.70 54.60 7.02Q54.85 7.35 54.85 7.70Q54.85 8.35 54.25 8.35Q54.15 8.35 53.85 8.25Q53.65 8.05 53.13 8.45Q52.60 8.85 52.08 9.37Q51.55 9.90 51.25 10.25Q52.35 10.60 54.03 11.07Q55.70 11.55 57.63 12.02Q59.55 12.50 61.40 12.80Q63.25 13.10 64.70 13.10Q66.10 13.10 66.93 12.75Q67.75 12.40 67.75 11.60Q67.75 11.30 67.88 11.07Q68 10.85 68.35 10.85Q68.60 10.85 68.70 11.27Q68.80 11.70 68.80 11.95Q68.80 13.15 67.53 13.90Q66.25 14.65 64.35 14.65Q64.05 14.65 63.75 14.62Q63.45 14.60 63.10 14.55Q57.50 13.85 54.38 12.75Q51.25 11.65 50.45 11.30Q48.20 14.90 46.75 18.70Q45.30 22.50 44.03 26.30Q42.75 30.10 41.08 33.65Q39.40 37.20 36.65 40.35Q34.65 42.60 31.78 44.15Q28.90 45.70 25.55 46.47Q22.20 47.25 18.75 47.25Z"/></g></g></svg>